<svg id="visual" viewBox="0 0 900 600" width="900" height="600" xmlns="http://www.w3.org/2000/svg" xmlns:xlink="http://www.w3.org/1999/xlink" version="1.1"><rect x="0" y="0" width="900" height="600" fill="#001220"></rect><defs><linearGradient id="grad1_0" x1="33.3%" y1="0%" x2="100%" y2="100%"><stop offset="20%" stop-color="#4facf7" stop-opacity="1"></stop><stop offset="80%" stop-color="#4facf7" stop-opacity="1"></stop></linearGradient></defs><defs><linearGradient id="grad1_1" x1="33.3%" y1="0%" x2="100%" y2="100%"><stop offset="20%" stop-color="#4facf7" stop-opacity="1"></stop><stop offset="80%" stop-color="#3174a8" stop-opacity="1"></stop></linearGradient></defs><defs><linearGradient id="grad1_2" x1="33.3%" y1="0%" x2="100%" y2="100%"><stop offset="20%" stop-color="#174060" stop-opacity="1"></stop><stop offset="80%" stop-color="#3174a8" stop-opacity="1"></stop></linearGradient></defs><defs><linearGradient id="grad1_3" x1="33.3%" y1="0%" x2="100%" y2="100%"><stop offset="20%" stop-color="#174060" stop-opacity="1"></stop><stop offset="80%" stop-color="#001220" stop-opacity="1"></stop></linearGradient></defs><defs><linearGradient id="grad2_0" x1="0%" y1="0%" x2="66.7%" y2="100%"><stop offset="20%" stop-color="#4facf7" stop-opacity="1"></stop><stop offset="80%" stop-color="#4facf7" stop-opacity="1"></stop></linearGradient></defs><defs><linearGradient id="grad2_1" x1="0%" y1="0%" x2="66.7%" y2="100%"><stop offset="20%" stop-color="#3174a8" stop-opacity="1"></stop><stop offset="80%" stop-color="#4facf7" stop-opacity="1"></stop></linearGradient></defs><defs><linearGradient id="grad2_2" x1="0%" y1="0%" x2="66.7%" y2="100%"><stop offset="20%" stop-color="#3174a8" stop-opacity="1"></stop><stop offset="80%" stop-color="#174060" stop-opacity="1"></stop></linearGradient></defs><defs><linearGradient id="grad2_3" x1="0%" y1="0%" x2="66.7%" y2="100%"><stop offset="20%" stop-color="#001220" stop-opacity="1"></stop><stop offset="80%" stop-color="#174060" stop-opacity="1"></stop></linearGradient></defs><g transform="translate(900, 0)"><path d="M0 378.6C-66 368.5 -131.9 358.5 -189.3 327.9C-246.7 297.2 -295.5 246.1 -325.6 188C-355.7 129.9 -367.2 65 -378.6 0L0 0Z" fill="#0b283e"></path><path d="M0 283.9C-49.5 276.4 -98.9 268.9 -142 245.9C-185 222.9 -221.6 184.6 -244.2 141C-266.8 97.4 -275.4 48.7 -283.9 0L0 0Z" fill="#245983"></path><path d="M0 189.3C-33 184.3 -66 179.2 -94.6 163.9C-123.3 148.6 -147.8 123 -162.8 94C-177.9 65 -183.6 32.5 -189.3 0L0 0Z" fill="#408fcf"></path><path d="M0 94.6C-16.5 92.1 -33 89.6 -47.3 82C-61.7 74.3 -73.9 61.5 -81.4 47C-88.9 32.5 -91.8 16.2 -94.6 0L0 0Z" fill="#4facf7"></path></g><g transform="translate(0, 600)"><path d="M0 -378.6C64.4 -366.2 128.9 -353.9 187 -323.9C245.1 -293.9 297 -246.2 327.9 -189.3C358.7 -132.4 368.7 -66.2 378.6 0L0 0Z" fill="#0b283e"></path><path d="M0 -283.9C48.3 -274.7 96.6 -265.4 140.2 -242.9C183.9 -220.4 222.7 -184.7 245.9 -142C269.1 -99.3 276.5 -49.6 283.9 0L0 0Z" fill="#245983"></path><path d="M0 -189.3C32.2 -183.1 64.4 -176.9 93.5 -161.9C122.6 -146.9 148.5 -123.1 163.9 -94.6C179.4 -66.2 184.3 -33.1 189.3 0L0 0Z" fill="#408fcf"></path><path d="M0 -94.6C16.1 -91.6 32.2 -88.5 46.7 -81C61.3 -73.5 74.2 -61.6 82 -47.3C89.7 -33.1 92.2 -16.5 94.6 0L0 0Z" fill="#4facf7"></path></g></svg>