<svg id="visual" viewBox="0 0 900 600" width="900" height="600" xmlns="http://www.w3.org/2000/svg" xmlns:xlink="http://www.w3.org/1999/xlink" version="1.1"><rect width="900" height="600" fill="#001829"></rect><g><g transform="translate(592 6)"><path d="M0 -88.8L48 -74.7L80.8 -36.9L87.9 12.6L67.1 58.1L25 85.2L-25 85.2L-67.1 58.1L-87.9 12.6L-80.8 -36.9L-48 -74.7Z" fill="none" stroke="#297EA6" stroke-width="2"></path></g><g transform="translate(778 282)"><path d="M0 -71L38.4 -59.7L64.6 -29.5L70.3 10.1L53.7 46.5L20 68.1L-20 68.1L-53.7 46.5L-70.3 10.1L-64.6 -29.5L-38.4 -59.7Z" fill="none" stroke="#297EA6" stroke-width="2"></path></g><g transform="translate(3 414)"><path d="M0 -60L32.4 -50.5L54.6 -24.9L59.4 8.5L45.3 39.3L16.9 57.6L-16.9 57.6L-45.3 39.3L-59.4 8.5L-54.6 -24.9L-32.4 -50.5Z" stroke="#297EA6" fill="none" stroke-width="2"></path></g><g transform="translate(544 326)"><path d="M0 -85L46 -71.5L77.3 -35.3L84.1 12.1L64.2 55.7L23.9 81.6L-23.9 81.6L-64.2 55.7L-84.1 12.1L-77.3 -35.3L-46 -71.5Z" stroke="#297EA6" fill="none" stroke-width="2"></path></g><g transform="translate(158 167)"><path d="M0 -72L38.9 -60.6L65.5 -29.9L71.3 10.2L54.4 47.1L20.3 69.1L-20.3 69.1L-54.4 47.1L-71.3 10.2L-65.5 -29.9L-38.9 -60.6Z" stroke="#297EA6" fill="none" stroke-width="2"></path></g><g transform="translate(347 351)"><path d="M0 -51L27.6 -42.9L46.4 -21.2L50.5 7.3L38.5 33.4L14.4 48.9L-14.4 48.9L-38.5 33.4L-50.5 7.3L-46.4 -21.2L-27.6 -42.9Z" stroke="#297EA6" fill="none" stroke-width="2"></path></g><g transform="translate(884 503)"><path d="M0 -57L30.8 -48L51.8 -23.7L56.4 8.1L43.1 37.3L16.1 54.7L-16.1 54.7L-43.1 37.3L-56.4 8.1L-51.8 -23.7L-30.8 -48Z" stroke="#297EA6" fill="none" stroke-width="2"></path></g><g transform="translate(470 137)"><path d="M0 -44L23.8 -37L40 -18.3L43.6 6.3L33.3 28.8L12.4 42.2L-12.4 42.2L-33.3 28.8L-43.6 6.3L-40 -18.3L-23.8 -37Z" stroke="#297EA6" fill="none" stroke-width="2"></path></g><g transform="translate(182 514)"><path d="M0 -66L35.7 -55.5L60 -27.4L65.3 9.4L49.9 43.2L18.6 63.3L-18.6 63.3L-49.9 43.2L-65.3 9.4L-60 -27.4L-35.7 -55.5Z" stroke="#297EA6" fill="none" stroke-width="2"></path></g><g transform="translate(383 566)"><path d="M0 -36L19.5 -30.3L32.7 -15L35.6 5.1L27.2 23.6L10.1 34.5L-10.1 34.5L-27.2 23.6L-35.6 5.1L-32.7 -15L-19.5 -30.3Z" stroke="#297EA6" fill="none" stroke-width="2"></path></g><g transform="translate(662 477)"><path d="M0 -39L21.1 -32.8L35.5 -16.2L38.6 5.6L29.5 25.5L11 37.4L-11 37.4L-29.5 25.5L-38.6 5.6L-35.5 -16.2L-21.1 -32.8Z" stroke="#297EA6" fill="none" stroke-width="2"></path></g><g transform="translate(801 101)"><path d="M0 -43L23.2 -36.2L39.1 -17.9L42.6 6.1L32.5 28.2L12.1 41.3L-12.1 41.3L-32.5 28.2L-42.6 6.1L-39.1 -17.9L-23.2 -36.2Z" stroke="#297EA6" fill="none" stroke-width="2"></path></g><g transform="translate(289 20)"><path d="M0 -77L41.6 -64.8L70 -32L76.2 11L58.2 50.4L21.7 73.9L-21.7 73.9L-58.2 50.4L-76.2 11L-70 -32L-41.6 -64.8Z" stroke="#297EA6" fill="none" stroke-width="2"></path></g><g transform="translate(33 31)"><path d="M0 -71L38.4 -59.7L64.6 -29.5L70.3 10.1L53.7 46.5L20 68.1L-20 68.1L-53.7 46.5L-70.3 10.1L-64.6 -29.5L-38.4 -59.7Z" stroke="#297EA6" fill="none" stroke-width="2"></path></g></g></svg>